<?xml version="1.0" encoding="UTF-8" standalone="no"?>
<svg
   xmlns:dc="http://purl.org/dc/elements/1.1/"
   xmlns:cc="http://creativecommons.org/ns#"
   xmlns:rdf="http://www.w3.org/1999/02/22-rdf-syntax-ns#"
   xmlns:svg="http://www.w3.org/2000/svg"
   xmlns="http://www.w3.org/2000/svg"
   xmlns:sodipodi="http://sodipodi.sourceforge.net/DTD/sodipodi-0.dtd"
   xmlns:inkscape="http://www.inkscape.org/namespaces/inkscape"
   version="1.1"
   id="svg851"
   xml:space="preserve"
   width="425.9296"
   height="83.901329"
   viewBox="0 0 425.9296 83.901331"
   sodipodi:docname="logotec.svg"
   inkscape:version="1.0.1 (3bc2e813f5, 2020-09-07)"><metadata
     id="metadata857"><rdf:RDF><cc:Work
         rdf:about=""><dc:format>image/svg+xml</dc:format><dc:type
           rdf:resource="http://purl.org/dc/dcmitype/StillImage" /><dc:title></dc:title></cc:Work></rdf:RDF></metadata><defs
     id="defs855"><clipPath
       clipPathUnits="userSpaceOnUse"
       id="clipPath871"><path
         d="M 0,92.851 H 400.301 V 0 H 0 Z"
         id="path869" /></clipPath></defs><sodipodi:namedview
     pagecolor="#ffffff"
     bordercolor="#666666"
     borderopacity="1"
     objecttolerance="10"
     gridtolerance="10"
     guidetolerance="10"
     inkscape:pageopacity="0"
     inkscape:pageshadow="2"
     inkscape:window-width="2560"
     inkscape:window-height="1385"
     id="namedview853"
     showgrid="false"
     fit-margin-top="0"
     fit-margin-left="0"
     fit-margin-right="0"
     fit-margin-bottom="0"
     inkscape:zoom="3.702214"
     inkscape:cx="218.06827"
     inkscape:cy="41.950529"
     inkscape:window-x="0"
     inkscape:window-y="0"
     inkscape:window-maximized="1"
     inkscape:current-layer="g859" /><g
     id="g859"
     inkscape:groupmode="layer"
     inkscape:label="logotec"
     transform="matrix(1.3333333,0,0,-1.3333333,-48.799065,103.85093)"><g
       id="g861"
       transform="translate(184.2874,77.8882)"><path
         d="M 0,0 H 2.815 L 2.814,-62.926 h -2.815 z"
         style="fill:#ef3340;fill-opacity:1;fill-rule:nonzero;stroke:none"
         id="path863" /></g><g
       id="g865"><g
         id="g867"
         clip-path="url(#clipPath871)"><g
           id="g873"
           transform="translate(220.0188,71.77)"><path
             d="m 0,0 0.23,-4.896 h -0.584 c -0.114,0.863 -0.267,1.478 -0.461,1.847 -0.318,0.596 -0.743,1.034 -1.272,1.317 -0.527,0.282 -1.223,0.424 -2.085,0.424 h -2.939 v -15.948 c 0,-1.283 0.139,-2.083 0.416,-2.402 0.39,-0.429 0.989,-0.645 1.8,-0.645 h 0.723 v -0.571 h -8.85 v 0.571 h 0.739 c 0.882,0 1.509,0.266 1.879,0.8 0.225,0.328 0.337,1.077 0.337,2.247 v 15.948 h -2.508 c -0.974,0 -1.668,-0.072 -2.077,-0.215 -0.535,-0.196 -0.991,-0.57 -1.37,-1.124 -0.38,-0.555 -0.607,-1.304 -0.679,-2.249 h -0.584 L -17.038,0 Z"
             style="fill:#002855;fill-opacity:1;fill-rule:nonzero;stroke:none"
             id="path875" /></g><g
           id="g877"
           transform="translate(222.1858,60.5796)"><path
             d="M 0,0 H 6.526 C 6.475,0.903 6.368,1.539 6.205,1.908 5.948,2.483 5.566,2.935 5.058,3.262 4.55,3.591 4.018,3.755 3.465,3.755 2.612,3.755 1.851,3.424 1.179,2.762 0.506,2.101 0.114,1.179 0,0 m 0,-0.893 c -0.008,-2.094 0.498,-3.736 1.525,-4.926 1.025,-1.191 2.231,-1.786 3.616,-1.786 0.923,0 1.727,0.254 2.411,0.762 0.681,0.508 1.254,1.378 1.716,2.61 L 9.745,-4.542 C 9.528,-5.947 8.904,-7.228 7.867,-8.381 6.829,-9.536 5.533,-10.115 3.973,-10.115 c -1.693,0 -3.144,0.661 -4.347,1.979 -1.208,1.319 -1.811,3.092 -1.811,5.319 0,2.411 0.62,4.291 1.854,5.641 1.236,1.349 2.789,2.024 4.658,2.024 1.58,0 2.877,-0.521 3.894,-1.562 1.015,-1.042 1.524,-2.435 1.524,-4.179 z"
             style="fill:#002855;fill-opacity:1;fill-rule:nonzero;stroke:none"
             id="path879" /></g><g
           id="g881"
           transform="translate(245.7864,56.2534)"><path
             d="m 0,0 c -0.381,-1.858 -1.123,-3.287 -2.231,-4.286 -1.109,-1.001 -2.335,-1.503 -3.678,-1.503 -1.602,0 -2.998,0.673 -4.189,2.017 -1.191,1.345 -1.785,3.162 -1.785,5.45 0,2.217 0.659,4.017 1.978,5.403 1.319,1.385 2.9,2.077 4.749,2.077 1.385,0 2.525,-0.366 3.417,-1.1 C -0.847,7.325 -0.4,6.562 -0.4,5.771 -0.4,5.382 -0.525,5.067 -0.778,4.826 -1.029,4.585 -1.381,4.463 -1.831,4.463 c -0.607,0 -1.064,0.197 -1.371,0.586 -0.175,0.216 -0.29,0.626 -0.347,1.232 -0.056,0.605 -0.264,1.066 -0.623,1.385 -0.359,0.308 -0.858,0.462 -1.493,0.462 -1.026,0 -1.853,-0.38 -2.48,-1.14 C -8.973,5.982 -9.39,4.653 -9.39,3.001 c 0,-1.682 0.414,-3.168 1.239,-4.455 0.827,-1.289 1.943,-1.932 3.349,-1.932 1.003,0 1.907,0.344 2.708,1.031 0.566,0.472 1.113,1.329 1.648,2.571 z"
             style="fill:#002855;fill-opacity:1;fill-rule:nonzero;stroke:none"
             id="path883" /></g><g
           id="g885"
           transform="translate(251.9124,62.4263)"><path
             d="m 0,0 c 1.653,1.99 3.229,2.985 4.727,2.985 0.769,0 1.429,-0.192 1.985,-0.577 0.554,-0.385 0.995,-1.018 1.323,-1.9 0.227,-0.616 0.339,-1.56 0.339,-2.833 v -6.018 c 0,-0.893 0.071,-1.498 0.217,-1.816 0.112,-0.258 0.294,-0.457 0.545,-0.6 0.253,-0.145 0.718,-0.216 1.394,-0.216 V -11.53 H 3.557 v 0.555 h 0.292 c 0.657,0 1.115,0.1 1.378,0.3 0.26,0.201 0.443,0.495 0.546,0.884 0.041,0.155 0.062,0.636 0.062,1.448 v 5.772 c 0,1.283 -0.168,2.214 -0.501,2.794 C 5,0.803 4.438,1.093 3.647,1.093 2.427,1.093 1.212,0.426 0,-0.908 v -7.435 c 0,-0.955 0.057,-1.544 0.171,-1.77 0.143,-0.298 0.34,-0.516 0.591,-0.655 0.252,-0.137 0.762,-0.207 1.531,-0.207 v -0.555 h -6.971 v 0.555 h 0.307 c 0.718,0 1.204,0.183 1.453,0.546 0.254,0.365 0.379,1.06 0.379,2.086 v 5.234 c 0,1.692 -0.039,2.724 -0.115,3.094 -0.077,0.369 -0.196,0.62 -0.355,0.754 -0.158,0.133 -0.371,0.2 -0.639,0.2 -0.288,0 -0.63,-0.078 -1.03,-0.231 L -4.91,1.263 -0.66,2.985 H 0 Z"
             style="fill:#002855;fill-opacity:1;fill-rule:nonzero;stroke:none"
             id="path887" /></g><g
           id="g889"
           transform="translate(269.9827,64.4116)"><path
             d="m 0,0 c -0.543,0 -1.091,-0.161 -1.639,-0.485 -0.549,-0.323 -0.992,-0.89 -1.331,-1.701 -0.338,-0.811 -0.508,-1.853 -0.508,-3.125 0,-2.052 0.408,-3.822 1.223,-5.31 0.818,-1.487 1.891,-2.231 3.227,-2.231 0.994,0 1.816,0.41 2.463,1.23 0.644,0.821 0.968,2.232 0.968,4.234 0,2.503 -0.538,4.474 -1.615,5.911 C 2.059,-0.492 1.131,0 0,0 m 0.479,1 c 2.134,0 3.849,-0.81 5.14,-2.432 1.099,-1.385 1.648,-2.976 1.648,-4.771 0,-1.262 -0.303,-2.541 -0.909,-3.833 -0.605,-1.294 -1.439,-2.269 -2.502,-2.924 -1.061,-0.657 -2.244,-0.987 -3.548,-0.987 -2.123,0 -3.811,0.848 -5.063,2.541 -1.057,1.426 -1.585,3.027 -1.585,4.803 0,1.292 0.319,2.579 0.961,3.856 0.642,1.277 1.484,2.221 2.531,2.831 C -1.8,0.695 -0.692,1 0.479,1"
             style="fill:#002855;fill-opacity:1;fill-rule:nonzero;stroke:none"
             id="path891" /></g><g
           id="g893"
           transform="translate(284.178,72.7857)"><path
             d="m 0,0 v -18.702 c 0,-0.883 0.061,-1.468 0.192,-1.756 0.127,-0.286 0.325,-0.504 0.592,-0.653 0.267,-0.149 0.763,-0.223 1.491,-0.223 v -0.555 h -6.911 v 0.555 c 0.648,0 1.09,0.067 1.326,0.199 0.235,0.134 0.42,0.356 0.553,0.663 0.133,0.307 0.199,0.898 0.199,1.77 v 12.806 c 0,1.591 -0.035,2.568 -0.107,2.934 -0.072,0.363 -0.188,0.612 -0.347,0.745 -0.158,0.134 -0.361,0.2 -0.605,0.2 -0.27,0 -0.607,-0.082 -1.019,-0.246 L -4.896,-1.724 -0.694,0 Z"
             style="fill:#002855;fill-opacity:1;fill-rule:nonzero;stroke:none"
             id="path895" /></g><g
           id="g897"
           transform="translate(298.2297,72.293)"><path
             d="M 0,0 -4.54,-5.311 H -5.063 L -3.447,0 Z m -3.725,-7.881 c -0.544,0 -1.09,-0.161 -1.639,-0.485 -0.55,-0.323 -0.992,-0.89 -1.33,-1.701 -0.34,-0.811 -0.509,-1.853 -0.509,-3.125 0,-2.053 0.407,-3.823 1.224,-5.31 0.815,-1.488 1.89,-2.231 3.225,-2.231 0.994,0 1.816,0.41 2.463,1.23 0.645,0.821 0.969,2.232 0.969,4.233 0,2.504 -0.538,4.475 -1.616,5.912 -0.731,0.984 -1.658,1.477 -2.787,1.477 m 0.477,1 c 2.136,0 3.849,-0.81 5.142,-2.432 1.097,-1.385 1.647,-2.976 1.647,-4.771 0,-1.262 -0.303,-2.541 -0.909,-3.833 -0.605,-1.294 -1.438,-2.269 -2.5,-2.924 -1.064,-0.658 -2.246,-0.987 -3.548,-0.987 -2.125,0 -3.813,0.848 -5.065,2.541 -1.057,1.426 -1.585,3.027 -1.585,4.803 0,1.292 0.321,2.578 0.962,3.856 0.641,1.276 1.486,2.221 2.531,2.831 1.047,0.611 2.155,0.916 3.325,0.916"
             style="fill:#002855;fill-opacity:1;fill-rule:nonzero;stroke:none"
             id="path899" /></g><g
           id="g901"
           transform="translate(310.2971,64.6734)"><path
             d="m 0,0 c -0.758,0 -1.396,-0.303 -1.908,-0.908 -0.512,-0.605 -0.771,-1.534 -0.771,-2.786 0,-1.621 0.351,-2.879 1.047,-3.771 0.533,-0.677 1.211,-1.017 2.031,-1.017 0.783,0 1.422,0.293 1.926,0.878 0.501,0.586 0.754,1.504 0.754,2.756 0,1.631 -0.354,2.908 -1.061,3.832 C 1.495,-0.339 0.821,0 0,0 m -2.831,-13.777 c -0.482,-0.523 -0.846,-1.011 -1.094,-1.462 -0.246,-0.451 -0.368,-0.867 -0.368,-1.246 0,-0.494 0.297,-0.924 0.893,-1.294 1.024,-0.637 2.508,-0.954 4.448,-0.954 1.846,0 3.209,0.326 4.087,0.979 0.876,0.651 1.316,1.346 1.316,2.084 0,0.535 -0.264,0.914 -0.785,1.139 -0.534,0.226 -1.593,0.36 -3.172,0.401 -2.307,0.061 -4.086,0.178 -5.325,0.353 m 0.152,5.142 c -0.861,0.421 -1.521,1.009 -1.985,1.762 -0.46,0.754 -0.692,1.589 -0.692,2.501 0,1.396 0.527,2.598 1.579,3.602 1.051,1.006 2.397,1.508 4.039,1.508 1.342,0 2.509,-0.327 3.494,-0.984 h 2.987 c 0.441,0 0.698,-0.013 0.769,-0.039 C 7.585,-0.31 7.636,-0.354 7.665,-0.416 7.728,-0.507 7.759,-0.672 7.759,-0.908 7.759,-1.174 7.731,-1.36 7.682,-1.461 7.651,-1.513 7.598,-1.554 7.521,-1.585 7.442,-1.616 7.184,-1.631 6.743,-1.631 H 4.91 c 0.575,-0.74 0.862,-1.682 0.862,-2.833 0,-1.314 -0.501,-2.437 -1.506,-3.37 -1.007,-0.935 -2.356,-1.402 -4.049,-1.402 -0.699,0 -1.412,0.103 -2.142,0.309 -0.451,-0.39 -0.756,-0.732 -0.914,-1.024 -0.159,-0.293 -0.239,-0.542 -0.239,-0.747 0,-0.174 0.086,-0.344 0.253,-0.507 0.171,-0.165 0.502,-0.283 0.994,-0.355 0.288,-0.041 1.005,-0.077 2.156,-0.107 2.114,-0.052 3.483,-0.124 4.109,-0.216 0.956,-0.134 1.716,-0.487 2.286,-1.063 0.568,-0.574 0.855,-1.282 0.855,-2.124 0,-1.159 -0.545,-2.247 -1.633,-3.263 -1.599,-1.498 -3.688,-2.247 -6.264,-2.247 -1.981,0 -3.654,0.447 -5.019,1.339 -0.769,0.513 -1.155,1.047 -1.155,1.601 0,0.246 0.057,0.492 0.17,0.739 0.176,0.38 0.534,0.908 1.079,1.585 0.07,0.092 0.595,0.647 1.57,1.662 -0.536,0.32 -0.912,0.604 -1.132,0.855 -0.222,0.251 -0.331,0.536 -0.331,0.854 0,0.359 0.147,0.78 0.438,1.262 0.293,0.484 0.968,1.165 2.023,2.048"
             style="fill:#002855;fill-opacity:1;fill-rule:nonzero;stroke:none"
             id="path903" /></g><g
           id="g905"
           transform="translate(323.1956,72.7857)"><path
             d="m 0,0 c 0.432,0 0.8,-0.151 1.103,-0.454 0.302,-0.303 0.455,-0.67 0.455,-1.101 0,-0.431 -0.153,-0.8 -0.455,-1.108 C 0.8,-2.971 0.432,-3.125 0,-3.125 c -0.429,0 -0.799,0.154 -1.106,0.462 -0.309,0.308 -0.461,0.677 -0.461,1.108 0,0.431 0.15,0.798 0.452,1.101 C -0.811,-0.151 -0.438,0 0,0 m 1.279,-7.374 v -11.328 c 0,-0.883 0.064,-1.47 0.194,-1.763 0.126,-0.293 0.316,-0.511 0.567,-0.654 0.254,-0.144 0.712,-0.215 1.38,-0.215 v -0.555 h -6.851 v 0.555 c 0.687,0 1.15,0.067 1.386,0.199 0.235,0.134 0.424,0.356 0.562,0.663 0.137,0.307 0.209,0.898 0.209,1.77 v 5.433 c 0,1.529 -0.049,2.519 -0.141,2.971 -0.071,0.328 -0.185,0.557 -0.339,0.685 -0.153,0.127 -0.363,0.193 -0.63,0.193 -0.287,0 -0.636,-0.078 -1.047,-0.232 l -0.215,0.555 4.247,1.723 z"
             style="fill:#002855;fill-opacity:1;fill-rule:nonzero;stroke:none"
             id="path907" /></g><g
           id="g909"
           transform="translate(340.344,56.2534)"><path
             d="m 0,0 c -0.38,-1.858 -1.123,-3.287 -2.231,-4.286 -1.109,-1.001 -2.335,-1.503 -3.678,-1.503 -1.603,0 -2.996,0.673 -4.188,2.017 -1.189,1.345 -1.786,3.162 -1.786,5.45 0,2.217 0.66,4.017 1.979,5.403 1.319,1.385 2.901,2.077 4.748,2.077 1.385,0 2.524,-0.366 3.417,-1.1 0.894,-0.733 1.34,-1.496 1.34,-2.287 0,-0.389 -0.126,-0.704 -0.378,-0.945 -0.252,-0.241 -0.603,-0.363 -1.054,-0.363 -0.606,0 -1.062,0.197 -1.37,0.586 -0.174,0.216 -0.292,0.626 -0.347,1.232 -0.056,0.605 -0.265,1.066 -0.623,1.385 -0.358,0.308 -0.856,0.462 -1.494,0.462 -1.025,0 -1.851,-0.38 -2.478,-1.14 -0.831,-1.006 -1.245,-2.335 -1.245,-3.987 0,-1.682 0.411,-3.168 1.239,-4.455 0.824,-1.289 1.94,-1.932 3.346,-1.932 1.006,0 1.91,0.344 2.709,1.031 0.567,0.472 1.115,1.329 1.648,2.571 z"
             style="fill:#002855;fill-opacity:1;fill-rule:nonzero;stroke:none"
             id="path911" /></g><g
           id="g913"
           transform="translate(348.7795,64.4116)"><path
             d="m 0,0 c -0.541,0 -1.09,-0.161 -1.64,-0.485 -0.548,-0.323 -0.99,-0.89 -1.331,-1.701 -0.338,-0.811 -0.508,-1.853 -0.508,-3.125 0,-2.052 0.409,-3.822 1.225,-5.31 0.816,-1.487 1.891,-2.231 3.225,-2.231 0.996,0 1.815,0.41 2.463,1.23 0.645,0.821 0.97,2.232 0.97,4.234 0,2.503 -0.539,4.474 -1.618,5.911 C 2.056,-0.492 1.13,0 0,0 m 0.479,1 c 2.133,0 3.847,-0.81 5.139,-2.432 1.099,-1.385 1.649,-2.976 1.649,-4.771 0,-1.262 -0.305,-2.541 -0.908,-3.833 -0.606,-1.294 -1.441,-2.269 -2.503,-2.924 -1.061,-0.657 -2.245,-0.987 -3.548,-0.987 -2.122,0 -3.812,0.848 -5.063,2.541 -1.057,1.426 -1.585,3.027 -1.585,4.803 0,1.292 0.319,2.579 0.96,3.856 0.642,1.277 1.484,2.221 2.531,2.831 C -1.799,0.695 -0.692,1 0.479,1"
             style="fill:#002855;fill-opacity:1;fill-rule:nonzero;stroke:none"
             id="path915" /></g><g
           id="g917"
           transform="translate(211.4221,22.832)"><path
             d="M 0,0 V 6.404 C -0.054,7.019 -0.218,7.58 -0.489,8.085 -0.76,8.592 -1.12,8.974 -1.566,9.233 c -0.449,0.258 -0.886,0.386 -1.31,0.386 -0.796,0 -1.506,-0.358 -2.129,-1.072 -0.824,-0.942 -1.234,-2.316 -1.234,-4.126 0,-1.824 0.397,-3.225 1.193,-4.196 0.795,-0.974 1.681,-1.458 2.658,-1.458 0.823,0 1.619,0.41 2.388,1.233 m 0,-0.949 c -0.606,-0.632 -1.199,-1.088 -1.777,-1.364 -0.579,-0.275 -1.203,-0.414 -1.872,-0.414 -1.356,0 -2.541,0.568 -3.554,1.703 -1.013,1.135 -1.52,2.593 -1.52,4.377 0,1.78 0.561,3.411 1.682,4.888 1.121,1.48 2.564,2.217 4.326,2.217 1.096,0 2.001,-0.346 2.715,-1.041 v 2.291 c 0,1.419 -0.035,2.292 -0.103,2.617 -0.067,0.326 -0.173,0.548 -0.317,0.666 -0.145,0.117 -0.325,0.176 -0.543,0.176 -0.236,0 -0.547,-0.073 -0.935,-0.218 l -0.179,0.476 3.704,1.518 h 0.61 V 2.578 c 0,-1.456 0.035,-2.345 0.104,-2.665 0.065,-0.323 0.175,-0.546 0.324,-0.671 0.149,-0.129 0.323,-0.191 0.522,-0.191 0.244,0 0.571,0.077 0.978,0.231 L 4.312,-1.194 0.624,-2.727 H 0 Z"
             style="fill:#002855;fill-opacity:1;fill-rule:nonzero;stroke:none"
             id="path919" /></g><g
           id="g921"
           transform="translate(218.6262,29.0176)"><path
             d="M 0,0 H 5.75 C 5.705,0.798 5.61,1.358 5.466,1.684 5.238,2.19 4.903,2.588 4.455,2.876 4.008,3.166 3.538,3.311 3.051,3.311 2.299,3.311 1.628,3.02 1.036,2.437 0.444,1.853 0.098,1.041 0,0 M 0,-0.786 C -0.01,-2.63 0.437,-4.078 1.342,-5.127 2.246,-6.176 3.31,-6.701 4.53,-6.701 c 0.813,0 1.521,0.223 2.122,0.672 0.603,0.447 1.106,1.214 1.513,2.3 L 8.584,-4 C 8.396,-5.241 7.844,-6.369 6.93,-7.386 6.017,-8.403 4.873,-8.912 3.498,-8.912 c -1.49,0 -2.768,0.581 -3.832,1.743 -1.063,1.164 -1.596,2.725 -1.596,4.686 0,2.126 0.548,3.783 1.637,4.974 1.091,1.189 2.459,1.782 4.105,1.782 1.391,0 2.535,-0.458 3.43,-1.377 0.896,-0.917 1.342,-2.144 1.342,-3.682 z"
             style="fill:#002855;fill-opacity:1;fill-rule:nonzero;stroke:none"
             id="path923" /></g><g
           id="g925"
           transform="translate(251.6712,39.3013)"><path
             d="M 0,0 0.42,-6.254 H 0 c -0.561,1.873 -1.361,3.219 -2.401,4.043 -1.039,0.822 -2.287,1.234 -3.745,1.234 -1.22,0 -2.323,-0.31 -3.309,-0.929 -0.984,-0.619 -1.762,-1.607 -2.326,-2.965 -0.567,-1.356 -0.849,-3.043 -0.849,-5.058 0,-1.665 0.266,-3.107 0.8,-4.328 0.535,-1.22 1.336,-2.158 2.408,-2.809 1.072,-0.651 2.294,-0.976 3.67,-0.976 1.194,0 2.247,0.255 3.162,0.766 0.911,0.511 1.916,1.526 3.01,3.046 l 0.422,-0.272 c -0.922,-1.637 -2,-2.834 -3.23,-3.595 -1.229,-0.759 -2.69,-1.139 -4.38,-1.139 -3.049,0 -5.41,1.131 -7.083,3.391 -1.248,1.683 -1.871,3.663 -1.871,5.942 0,1.837 0.412,3.523 1.236,5.061 0.821,1.537 1.954,2.728 3.396,3.574 1.443,0.846 3.02,1.268 4.728,1.268 1.329,0 2.641,-0.326 3.933,-0.977 0.379,-0.199 0.652,-0.299 0.816,-0.299 0.243,0 0.455,0.086 0.636,0.258 0.236,0.244 0.403,0.583 0.501,1.018 z"
             style="fill:#002855;fill-opacity:1;fill-rule:nonzero;stroke:none"
             id="path927" /></g><g
           id="g929"
           transform="translate(259.9993,32.3975)"><path
             d="m 0,0 c -0.479,0 -0.959,-0.143 -1.445,-0.428 -0.483,-0.284 -0.873,-0.786 -1.171,-1.499 -0.299,-0.715 -0.449,-1.632 -0.449,-2.755 0,-1.808 0.36,-3.367 1.077,-4.678 0.719,-1.313 1.669,-1.968 2.844,-1.968 0.876,0 1.6,0.362 2.169,1.084 0.57,0.724 0.856,1.968 0.856,3.732 0,2.206 -0.476,3.943 -1.425,5.21 C 1.813,-0.436 0.995,0 0,0 m 0.421,0.879 c 1.88,0 3.392,-0.713 4.532,-2.141 0.967,-1.221 1.451,-2.623 1.451,-4.205 0,-1.113 -0.266,-2.24 -0.801,-3.38 -0.534,-1.139 -1.27,-1.998 -2.205,-2.578 -0.936,-0.578 -1.977,-0.867 -3.127,-0.867 -1.871,0 -3.36,0.746 -4.461,2.238 -0.932,1.258 -1.399,2.669 -1.399,4.233 0,1.139 0.283,2.273 0.848,3.399 0.567,1.127 1.309,1.956 2.231,2.496 0.924,0.538 1.901,0.805 2.931,0.805"
             style="fill:#002855;fill-opacity:1;fill-rule:nonzero;stroke:none"
             id="path931" /></g><g
           id="g933"
           transform="translate(276.2639,33.2769)"><path
             d="m 0,0 v -4.232 h -0.447 c -0.342,1.331 -0.785,2.235 -1.322,2.715 -0.538,0.478 -1.223,0.718 -2.054,0.718 -0.634,0 -1.146,-0.168 -1.534,-0.503 -0.389,-0.333 -0.583,-0.703 -0.583,-1.112 0,-0.506 0.143,-0.94 0.434,-1.302 0.279,-0.371 0.85,-0.764 1.71,-1.18 l 1.981,-0.962 c 1.835,-0.897 2.752,-2.078 2.752,-3.541 0,-1.132 -0.427,-2.043 -1.282,-2.734 -0.854,-0.692 -1.811,-1.038 -2.87,-1.038 -0.758,0 -1.626,0.136 -2.604,0.407 -0.298,0.091 -0.542,0.137 -0.733,0.137 -0.207,0 -0.37,-0.118 -0.487,-0.354 h -0.447 v 4.436 h 0.447 c 0.254,-1.267 0.737,-2.22 1.452,-2.864 0.714,-0.641 1.513,-0.962 2.401,-0.962 0.624,0 1.13,0.183 1.527,0.549 0.391,0.366 0.59,0.808 0.59,1.323 0,0.625 -0.221,1.149 -0.658,1.575 -0.441,0.424 -1.315,0.961 -2.626,1.614 -1.311,0.651 -2.169,1.237 -2.579,1.763 -0.407,0.515 -0.608,1.166 -0.608,1.952 0,1.023 0.349,1.878 1.05,2.567 0.7,0.685 1.608,1.028 2.72,1.028 0.488,0 1.081,-0.102 1.777,-0.311 0.463,-0.135 0.768,-0.202 0.924,-0.202 0.143,0 0.256,0.03 0.337,0.094 0.083,0.063 0.176,0.203 0.285,0.419 z"
             style="fill:#002855;fill-opacity:1;fill-rule:nonzero;stroke:none"
             id="path935" /></g><g
           id="g937"
           transform="translate(282.6555,36.9942)"><path
             d="m 0,0 v -4.083 h 2.903 v -0.95 H 0 v -8.057 c 0,-0.806 0.113,-1.348 0.347,-1.628 0.228,-0.281 0.525,-0.421 0.887,-0.421 0.299,0 0.588,0.093 0.867,0.279 0.282,0.185 0.5,0.46 0.652,0.82 h 0.529 c -0.317,-0.885 -0.764,-1.554 -1.342,-2 -0.58,-0.447 -1.177,-0.672 -1.792,-0.672 -0.416,0 -0.821,0.116 -1.219,0.345 -0.399,0.231 -0.693,0.562 -0.882,0.992 -0.191,0.428 -0.285,1.091 -0.285,1.986 v 8.356 h -1.968 v 0.449 c 0.498,0.199 1.007,0.536 1.525,1.01 0.52,0.476 0.985,1.039 1.392,1.688 0.207,0.344 0.498,0.973 0.868,1.886 z"
             style="fill:#002855;fill-opacity:1;fill-rule:nonzero;stroke:none"
             id="path939" /></g><g
           id="g941"
           transform="translate(293.8069,23.1597)"><path
             d="M 0,0 V 4.733 C -1.366,4.19 -2.249,3.807 -2.646,3.581 -3.359,3.182 -3.871,2.766 -4.18,2.333 -4.485,1.898 -4.64,1.423 -4.64,0.906 c 0,-0.649 0.195,-1.191 0.582,-1.619 0.39,-0.431 0.837,-0.644 1.343,-0.644 0.689,0 1.592,0.451 2.715,1.357 m 0,-0.884 c -1.275,-0.985 -2.076,-1.554 -2.402,-1.709 -0.487,-0.227 -1.007,-0.339 -1.56,-0.339 -0.86,0 -1.568,0.293 -2.125,0.883 -0.556,0.588 -0.832,1.359 -0.832,2.319 0,0.605 0.136,1.13 0.405,1.574 0.371,0.615 1.016,1.194 1.935,1.737 0.917,0.542 2.444,1.203 4.579,1.98 L 0,6.049 C 0,7.288 -0.197,8.137 -0.592,8.6 -0.983,9.06 -1.557,9.291 -2.308,9.291 -2.877,9.291 -3.329,9.137 -3.664,8.829 -4.007,8.524 -4.18,8.169 -4.18,7.771 l 0.028,-0.786 c 0,-0.417 -0.107,-0.737 -0.319,-0.962 -0.213,-0.227 -0.491,-0.339 -0.835,-0.339 -0.333,0 -0.607,0.115 -0.82,0.352 -0.214,0.234 -0.318,0.555 -0.318,0.963 0,0.778 0.397,1.493 1.193,2.143 0.796,0.651 1.913,0.975 3.351,0.975 1.103,0 2.007,-0.184 2.713,-0.555 C 1.346,9.282 1.741,8.843 1.993,8.246 2.155,7.857 2.237,7.062 2.237,5.858 V 1.64 c 0,-1.184 0.023,-1.91 0.068,-2.178 0.047,-0.267 0.12,-0.445 0.223,-0.536 0.105,-0.091 0.224,-0.134 0.361,-0.134 0.144,0 0.272,0.03 0.38,0.093 0.19,0.117 0.556,0.449 1.099,0.993 V -0.884 C 3.354,-2.241 2.387,-2.918 1.464,-2.918 c -0.443,0 -0.796,0.153 -1.058,0.46 C 0.145,-2.15 0.007,-1.625 0,-0.884"
             style="fill:#002855;fill-opacity:1;fill-rule:nonzero;stroke:none"
             id="path943" /></g><g
           id="g945"
           transform="translate(310.886,29.9414)"><path
             d="m 0,0 c 0.171,0 0.32,-0.002 0.447,-0.008 0.127,-0.004 0.232,-0.006 0.313,-0.006 1.753,0 3.075,0.379 3.969,1.14 0.889,0.759 1.333,1.727 1.333,2.903 0,1.148 -0.357,2.082 -1.078,2.8 C 4.266,7.549 3.313,7.908 2.128,7.908 1.604,7.908 0.895,7.821 0,7.65 Z M 13.063,-9.456 H 8.152 L 1.927,-0.855 C 1.465,-0.873 1.089,-0.883 0.801,-0.883 0.683,-0.883 0.555,-0.88 0.419,-0.876 0.283,-0.871 0.143,-0.864 0,-0.855 V -6.2 c 0,-1.159 0.126,-1.878 0.378,-2.157 0.345,-0.398 0.86,-0.598 1.549,-0.598 h 0.717 v -0.501 h -7.882 v 0.501 h 0.692 c 0.779,0 1.333,0.254 1.669,0.76 0.189,0.28 0.283,0.946 0.283,1.995 V 5.684 c 0,1.157 -0.125,1.877 -0.379,2.155 -0.352,0.4 -0.876,0.598 -1.573,0.598 H -5.238 V 8.938 H 1.465 C 3.417,8.938 4.858,8.796 5.784,8.512 6.713,8.227 7.499,7.703 8.146,6.937 8.792,6.174 9.115,5.264 9.115,4.204 9.115,3.075 8.745,2.093 8.01,1.261 7.272,0.429 6.131,-0.159 4.583,-0.503 l 3.8,-5.276 c 0.87,-1.212 1.616,-2.016 2.236,-2.416 0.626,-0.398 1.44,-0.65 2.444,-0.76 z"
             style="fill:#002855;fill-opacity:1;fill-rule:nonzero;stroke:none"
             id="path947" /></g><g
           id="g949"
           transform="translate(327.7346,39.7754)"><path
             d="M 0,0 C 0.38,0 0.702,-0.133 0.969,-0.4 1.235,-0.666 1.368,-0.991 1.368,-1.37 1.368,-1.75 1.235,-2.075 0.969,-2.346 0.702,-2.618 0.38,-2.753 0,-2.753 c -0.38,0 -0.708,0.135 -0.978,0.407 -0.271,0.271 -0.405,0.596 -0.405,0.976 0,0.379 0.132,0.704 0.4,0.97 C -0.716,-0.133 -0.391,0 0,0 m 1.126,-6.499 v -9.983 c 0,-0.777 0.055,-1.295 0.168,-1.553 0.114,-0.258 0.281,-0.45 0.503,-0.577 0.222,-0.126 0.627,-0.191 1.214,-0.191 v -0.487 h -6.036 v 0.487 c 0.605,0 1.011,0.06 1.22,0.178 0.208,0.118 0.373,0.312 0.495,0.583 0.122,0.272 0.184,0.792 0.184,1.56 v 4.789 c 0,1.347 -0.041,2.22 -0.123,2.619 -0.062,0.289 -0.163,0.49 -0.298,0.602 -0.136,0.114 -0.32,0.17 -0.557,0.17 -0.252,0 -0.56,-0.068 -0.921,-0.202 l -0.191,0.488 3.746,1.517 z"
             style="fill:#002855;fill-opacity:1;fill-rule:nonzero;stroke:none"
             id="path951" /></g><g
           id="g953"
           transform="translate(342.8459,25.207)"><path
             d="m 0,0 c -0.334,-1.637 -0.989,-2.897 -1.968,-3.779 -0.974,-0.881 -2.056,-1.323 -3.242,-1.323 -1.408,0 -2.639,0.592 -3.689,1.778 -1.049,1.184 -1.574,2.785 -1.574,4.803 0,1.953 0.581,3.54 1.743,4.76 1.163,1.221 2.558,1.831 4.187,1.831 1.221,0 2.223,-0.321 3.01,-0.969 0.788,-0.646 1.181,-1.317 1.181,-2.015 0,-0.343 -0.112,-0.621 -0.333,-0.835 C -0.907,4.04 -1.217,3.935 -1.614,3.935 -2.146,3.935 -2.551,4.104 -2.82,4.449 -2.976,4.64 -3.076,5 -3.127,5.533 -3.177,6.068 -3.359,6.477 -3.675,6.754 -3.992,7.026 -4.431,7.163 -4.992,7.163 -5.896,7.163 -6.625,6.827 -7.176,6.159 -7.908,5.273 -8.273,4.1 -8.273,2.645 c 0,-1.482 0.362,-2.792 1.09,-3.928 0.728,-1.134 1.711,-1.702 2.95,-1.702 0.887,0 1.682,0.303 2.387,0.909 0.499,0.415 0.983,1.17 1.454,2.265 z"
             style="fill:#002855;fill-opacity:1;fill-rule:nonzero;stroke:none"
             id="path955" /></g><g
           id="g957"
           transform="translate(351.6643,23.1597)"><path
             d="M 0,0 V 4.733 C -1.365,4.19 -2.248,3.807 -2.646,3.581 -3.36,3.182 -3.871,2.766 -4.178,2.333 -4.485,1.898 -4.641,1.423 -4.641,0.906 c 0,-0.649 0.197,-1.191 0.584,-1.619 0.389,-0.431 0.836,-0.644 1.344,-0.644 0.687,0 1.591,0.451 2.713,1.357 m 0,-0.884 c -1.275,-0.985 -2.077,-1.554 -2.4,-1.709 -0.49,-0.227 -1.009,-0.339 -1.563,-0.339 -0.858,0 -1.565,0.293 -2.12,0.883 -0.558,0.588 -0.837,1.359 -0.837,2.319 0,0.605 0.136,1.13 0.407,1.574 0.372,0.615 1.016,1.194 1.934,1.737 0.917,0.542 2.444,1.203 4.579,1.98 V 6.049 C 0,7.288 -0.197,8.137 -0.591,8.6 -0.982,9.06 -1.556,9.291 -2.306,9.291 -2.875,9.291 -3.329,9.137 -3.663,8.829 -4.007,8.524 -4.178,8.169 -4.178,7.771 l 0.026,-0.786 c 0,-0.417 -0.108,-0.737 -0.319,-0.962 -0.211,-0.227 -0.49,-0.339 -0.833,-0.339 -0.335,0 -0.61,0.115 -0.822,0.352 -0.211,0.234 -0.317,0.555 -0.317,0.963 0,0.778 0.399,1.493 1.192,2.143 0.795,0.651 1.914,0.975 3.351,0.975 1.103,0 2.008,-0.184 2.714,-0.555 C 1.347,9.282 1.741,8.843 1.993,8.246 2.156,7.857 2.239,7.062 2.239,5.858 V 1.64 c 0,-1.184 0.022,-1.91 0.067,-2.178 0.045,-0.267 0.119,-0.445 0.224,-0.536 0.104,-0.091 0.224,-0.134 0.359,-0.134 0.143,0 0.272,0.03 0.38,0.093 0.19,0.117 0.556,0.449 1.099,0.993 V -0.884 C 3.356,-2.241 2.388,-2.918 1.464,-2.918 1.022,-2.918 0.67,-2.765 0.405,-2.458 0.145,-2.15 0.008,-1.625 0,-0.884"
             style="fill:#002855;fill-opacity:1;fill-rule:nonzero;stroke:none"
             id="path959" /></g><g
           id="g961"
           transform="translate(78.3523,71.6328)"><path
             d="m 0,0 0.558,-11.823 h -1.413 c -0.274,2.083 -0.645,3.57 -1.116,4.461 -0.769,1.438 -1.791,2.498 -3.067,3.179 -1.277,0.683 -2.955,1.023 -5.038,1.023 h -7.102 v -38.518 c 0,-3.097 0.336,-5.031 1.005,-5.799 0.941,-1.042 2.391,-1.562 4.35,-1.562 h 1.747 v -1.375 h -21.378 v 1.375 h 1.785 c 2.131,0 3.643,0.644 4.536,1.933 0.545,0.793 0.817,2.604 0.817,5.428 V -3.16 h -6.06 c -2.355,0 -4.028,-0.174 -5.019,-0.52 -1.29,-0.472 -2.393,-1.376 -3.309,-2.715 -0.917,-1.338 -1.463,-3.148 -1.636,-5.428 h -1.413 L -41.158,0 Z"
             style="fill:#002855;fill-opacity:1;fill-rule:nonzero;stroke:none"
             id="path963" /></g><g
           id="g965"
           transform="translate(94.4343,68.8819)"><path
             d="m 0,0 v -19.929 h 11.08 c 2.874,0 4.795,0.435 5.762,1.302 1.288,1.14 2.008,3.148 2.157,6.023 h 1.375 v -17.548 h -1.375 c -0.348,2.453 -0.695,4.027 -1.041,4.72 -0.447,0.869 -1.179,1.549 -2.194,2.046 -1.016,0.496 -2.578,0.743 -4.684,0.743 H 0 v -16.619 c 0,-2.23 0.098,-3.588 0.297,-4.07 0.199,-0.483 0.545,-0.867 1.041,-1.152 0.495,-0.287 1.437,-0.428 2.826,-0.428 h 8.551 c 2.85,0 4.92,0.197 6.209,0.595 1.289,0.397 2.528,1.177 3.718,2.342 1.537,1.536 3.11,3.853 4.722,6.953 h 1.487 l -4.35,-12.641 h -38.853 v 1.375 h 1.785 c 1.189,0 2.317,0.284 3.383,0.855 0.793,0.397 1.333,0.992 1.617,1.784 0.285,0.793 0.429,2.418 0.429,4.87 v 32.756 c 0,3.197 -0.324,5.168 -0.968,5.912 -0.892,0.99 -2.379,1.486 -4.461,1.486 h -1.785 v 1.376 h 38.853 l 0.558,-11.043 h -1.451 c -0.521,2.653 -1.096,4.476 -1.728,5.466 -0.632,0.992 -1.568,1.748 -2.807,2.268 C 18.082,-0.186 16.333,0 13.831,0 Z"
             style="fill:#002855;fill-opacity:1;fill-rule:nonzero;stroke:none"
             id="path967" /></g><g
           id="g969"
           transform="translate(166.3064,72.7857)"><path
             d="M 0,0 1.153,-17.14 H 0 c -1.538,5.131 -3.73,8.825 -6.581,11.08 -2.851,2.255 -6.271,3.382 -10.261,3.382 -3.346,0 -6.371,-0.848 -9.072,-2.546 -2.702,-1.697 -4.828,-4.405 -6.377,-8.124 -1.548,-3.717 -2.324,-8.34 -2.324,-13.867 0,-4.56 0.732,-8.514 2.195,-11.861 1.462,-3.346 3.662,-5.911 6.599,-7.695 2.937,-1.786 6.29,-2.678 10.057,-2.678 3.272,0 6.16,0.699 8.662,2.101 2.504,1.4 5.255,4.182 8.255,8.347 l 1.152,-0.743 c -2.528,-4.487 -5.478,-7.772 -8.848,-9.853 -3.372,-2.081 -7.374,-3.124 -12.009,-3.124 -8.353,0 -14.823,3.099 -19.408,9.296 -3.421,4.611 -5.131,10.038 -5.131,16.284 0,5.031 1.128,9.654 3.384,13.868 2.255,4.213 5.359,7.479 9.313,9.797 3.954,2.317 8.272,3.476 12.957,3.476 3.644,0 7.237,-0.892 10.781,-2.678 1.042,-0.545 1.785,-0.817 2.232,-0.817 0.669,0 1.251,0.235 1.747,0.706 0.644,0.669 1.102,1.599 1.376,2.789 z"
             style="fill:#002855;fill-opacity:1;fill-rule:nonzero;stroke:none"
             id="path971" /></g></g></g></g></svg>
